solid whistle
facet normal -3.1839622822124664e-33 7.36005364891349e-16 -1.0
  outer loop
    vertex 7.100000000000001 -16.0 7.099999999999994
    vertex 0.8999999999999999 -31.100000000000005 7.099999999999983
    vertex 0.8999999999999998 -16.0 7.099999999999994
  endloop
endfacet
facet normal -3.1839622822124664e-33 7.36005364891349e-16 -1.0
  outer loop
    vertex 0.8999999999999999 -31.100000000000005 7.099999999999983
    vertex 7.100000000000001 -16.0 7.099999999999994
    vertex 7.1 -31.100000000000005 7.099999999999983
  endloop
endfacet
facet normal 1.0 -2.3389777849603194e-17 7.390597700374888e-17
  outer loop
    vertex 0.8999999999999996 -31.099999999999998 0.8999999999999827
    vertex 0.8999999999999998 -16.0 7.099999999999994
    vertex 0.8999999999999999 -31.100000000000005 7.099999999999983
  endloop
endfacet
facet normal 1.0 -2.3389777849603194e-17 7.390597700374888e-17
  outer loop
    vertex 0.8999999999999998 -16.0 7.099999999999994
    vertex 0.8999999999999996 -31.099999999999998 0.8999999999999827
    vertex 0.9000000000000026 -10.66666666666667 0.8999999999999938
  endloop
endfacet
facet normal 1.0 -2.3389777849603194e-17 7.390597700374888e-17
  outer loop
    vertex 0.8999999999999998 -16.0 7.099999999999994
    vertex 0.9000000000000026 -10.66666666666667 0.8999999999999938
    vertex 0.8999999999999998 -10.666666666666671 7.099999999999997
  endloop
endfacet
facet normal 1.0 -2.3389777849603194e-17 7.390597700374888e-17
  outer loop
    vertex 0.8999999999999998 -10.666666666666671 7.099999999999997
    vertex 0.9000000000000026 -10.66666666666667 0.8999999999999938
    vertex 0.9000000000000026 -10.66666666666667 5.549999999999996
  endloop
endfacet
facet normal 1.0 -2.3389777849603194e-17 7.390597700374888e-17
  outer loop
    vertex 0.8999999999999998 -10.666666666666671 7.099999999999997
    vertex 0.9000000000000026 -10.66666666666667 5.549999999999996
    vertex 0.8999999999999999 -5.639932965095795e-15 7.1
  endloop
endfacet
facet normal 1.0 -2.3389777849603194e-17 7.390597700374888e-17
  outer loop
    vertex 0.8999999999999999 -5.639932965095795e-15 7.1
    vertex 0.9000000000000026 -10.66666666666667 5.549999999999996
    vertex 0.8999999999999996 0.0 0.8999999999999999
  endloop
endfacet
facet normal 1.0 -2.3389777849603194e-17 7.390597700374888e-17
  outer loop
    vertex 0.8999999999999998 -16.0 7.099999999999994
    vertex 0.8999999999999998 -10.666666666666671 7.999999999999994
    vertex 0.8999999999999998 -16.000000000000004 7.999999999999991
  endloop
endfacet
facet normal 1.0 -2.3389777849603194e-17 7.390597700374888e-17
  outer loop
    vertex 0.8999999999999998 -10.666666666666671 7.999999999999994
    vertex 0.8999999999999998 -16.0 7.099999999999994
    vertex 0.8999999999999998 -10.666666666666671 7.099999999999997
  endloop
endfacet
facet normal -6.325867908657927e-17 -1.0 -1.013193176703383e-15
  outer loop
    vertex 7.100000000000001 -10.666666666666671 7.999999999999994
    vertex 0.8999999999999998 -10.666666666666671 7.099999999999997
    vertex 7.100000000000001 -10.666666666666671 7.099999999999997
  endloop
endfacet
facet normal -6.325867908657927e-17 -1.0 -1.013193176703383e-15
  outer loop
    vertex 0.8999999999999998 -10.666666666666671 7.099999999999997
    vertex 7.100000000000001 -10.666666666666671 7.999999999999994
    vertex 0.8999999999999998 -10.666666666666671 7.999999999999994
  endloop
endfacet
facet normal 5.5354778850207755e-33 2.9073965457371286e-16 -1.0
  outer loop
    vertex 0.8999999999999999 -5.639932965095795e-15 7.1
    vertex 7.100000000000001 -10.666666666666671 7.099999999999997
    vertex 0.8999999999999998 -10.666666666666671 7.099999999999997
  endloop
endfacet
facet normal 5.5354778850207755e-33 2.9073965457371286e-16 -1.0
  outer loop
    vertex 7.100000000000001 -10.666666666666671 7.099999999999997
    vertex 0.8999999999999999 -5.639932965095795e-15 7.1
    vertex 7.1 -5.639932965095795e-15 7.1
  endloop
endfacet
facet normal 0.9999586209202692 -0.009097057064430022 -3.1643322108266152e-18
  outer loop
    vertex 7.999999999999999 -31.999999999999996 -1.77635683940025e-14
    vertex 7.999999999999999 -5.639932965095795e-15 7.999999999999999
    vertex 7.999999999999999 -32.0 7.999999999999981
  endloop
endfacet
facet normal 1.0 0.0 0.0
  outer loop
    vertex 7.999999999999999 -5.639932965095795e-15 7.999999999999999
    vertex 7.999999999999999 -31.999999999999996 -1.77635683940025e-14
    vertex 7.999999999999999 0.0 0.0
  endloop
endfacet
facet normal 1.1930353354189744e-31 4.64154152924474e-16 -1.0
  outer loop
    vertex 7.999999999999999 0.0 0.0
    vertex 0.0 -31.999999999999996 -1.77635683940025e-14
    vertex 0.0 0.0 0.0
  endloop
endfacet
facet normal 1.1930353354189744e-31 4.64154152924474e-16 -1.0
  outer loop
    vertex 0.0 -31.999999999999996 -1.77635683940025e-14
    vertex 7.999999999999999 0.0 0.0
    vertex 0.02063090742072375 -33.1337922899355 -1.621480727465041e-14
  endloop
endfacet
facet normal 1.1930353354189744e-31 4.64154152924474e-16 -1.0
  outer loop
    vertex 0.02063090742072375 -33.1337922899355 -1.621480727465041e-14
    vertex 7.999999999999999 0.0 0.0
    vertex 0.35627096506380995 -34.21696187165551 -1.621480727465041e-14
  endloop
endfacet
facet normal 1.1930353354189744e-31 4.64154152924474e-16 -1.0
  outer loop
    vertex 0.35627096506380995 -34.21696187165551 -1.621480727465041e-14
    vertex 7.999999999999999 0.0 0.0
    vertex 0.9803507125753816 -35.16376441696477 -1.621480727465041e-14
  endloop
endfacet
facet normal 1.1930353354189744e-31 4.64154152924474e-16 -1.0
  outer loop
    vertex 0.9803507125753816 -35.16376441696477 -1.621480727465041e-14
    vertex 7.999999999999999 0.0 0.0
    vertex 1.8434676375568748 -35.899250490842896 -1.621480727465041e-14
  endloop
endfacet
facet normal 1.1930353354189744e-31 4.64154152924474e-16 -1.0
  outer loop
    vertex 1.8434676375568748 -35.899250490842896 -1.621480727465041e-14
    vertex 7.999999999999999 0.0 0.0
    vertex 2.5511112605663957 -33.87413343234622 -1.973976537783528e-14
  endloop
endfacet
facet normal 1.1930353354189744e-31 4.64154152924474e-16 -1.0
  outer loop
    vertex 1.8434676375568748 -35.899250490842896 -1.621480727465041e-14
    vertex 2.5511112605663957 -33.87413343234622 -1.973976537783528e-14
    vertex 2.4999999999999982 -34.262362 -1.973976537783528e-14
  endloop
endfacet
facet normal 1.1930353354189744e-31 4.64154152924474e-16 -1.0
  outer loop
    vertex 2.5511112605663957 -33.87413343234622 -1.973976537783528e-14
    vertex 7.999999999999999 0.0 0.0
    vertex 2.70096189432334 -33.512362 -1.973976537783528e-14
  endloop
endfacet
facet normal 1.1930353354189744e-31 4.64154152924474e-16 -1.0
  outer loop
    vertex 2.70096189432334 -33.512362 -1.973976537783528e-14
    vertex 7.999999999999999 0.0 0.0
    vertex 2.9393398282201773 -33.20170182822018 -1.973976537783528e-14
  endloop
endfacet
facet normal 1.1930353354189744e-31 4.64154152924474e-16 -1.0
  outer loop
    vertex 2.9393398282201773 -33.20170182822018 -1.973976537783528e-14
    vertex 7.999999999999999 0.0 0.0
    vertex 3.2499999999999982 -32.963323894323345 -1.973976537783528e-14
  endloop
endfacet
facet normal 1.1930353354189744e-31 4.64154152924474e-16 -1.0
  outer loop
    vertex 3.2499999999999982 -32.963323894323345 -1.973976537783528e-14
    vertex 7.999999999999999 0.0 0.0
    vertex 3.611771432346217 -32.813473260566404 -1.973976537783528e-14
  endloop
endfacet
facet normal 1.1930353354189744e-31 4.64154152924474e-16 -1.0
  outer loop
    vertex 3.611771432346217 -32.813473260566404 -1.973976537783528e-14
    vertex 7.999999999999999 0.0 0.0
    vertex 3.999999999999999 -32.762362 -1.973976537783528e-14
  endloop
endfacet
facet normal 1.1930353354189744e-31 4.64154152924474e-16 -1.0
  outer loop
    vertex 3.999999999999999 -32.762362 -1.973976537783528e-14
    vertex 7.999999999999999 0.0 0.0
    vertex 4.388228567653781 -32.813473260566404 -1.973976537783528e-14
  endloop
endfacet
facet normal 1.1930353354189744e-31 4.64154152924474e-16 -1.0
  outer loop
    vertex 4.388228567653781 -32.813473260566404 -1.973976537783528e-14
    vertex 7.999999999999999 0.0 0.0
    vertex 4.749999999999999 -32.963323894323345 -1.973976537783528e-14
  endloop
endfacet
facet normal 1.1930353354189744e-31 4.64154152924474e-16 -1.0
  outer loop
    vertex 4.749999999999999 -32.963323894323345 -1.973976537783528e-14
    vertex 7.999999999999999 0.0 0.0
    vertex 5.06066017177982 -33.20170182822019 -1.973976537783528e-14
  endloop
endfacet
facet normal 1.1930353354189744e-31 4.64154152924474e-16 -1.0
  outer loop
    vertex 5.06066017177982 -33.20170182822019 -1.973976537783528e-14
    vertex 7.999999999999999 0.0 0.0
    vertex 5.299038105676657 -33.512362 -1.973976537783528e-14
  endloop
endfacet
facet normal 1.1930353354189744e-31 4.64154152924474e-16 -1.0
  outer loop
    vertex 5.299038105676657 -33.512362 -1.973976537783528e-14
    vertex 7.999999999999999 0.0 0.0
    vertex 5.448888739433601 -33.87413343234623 -1.973976537783528e-14
  endloop
endfacet
facet normal 1.1930353354189744e-31 4.64154152924474e-16 -1.0
  outer loop
    vertex 5.448888739433601 -33.87413343234623 -1.973976537783528e-14
    vertex 7.999999999999999 0.0 0.0
    vertex 5.499999999999998 -34.262362 -1.973976537783528e-14
  endloop
endfacet
facet normal 1.1930353354189744e-31 4.64154152924474e-16 -1.0
  outer loop
    vertex 5.499999999999998 -34.262362 -1.973976537783528e-14
    vertex 7.999999999999999 0.0 0.0
    vertex 6.156532362443119 -35.899250490842896 -1.621480727465041e-14
  endloop
endfacet
facet normal 1.1930353354189744e-31 4.64154152924474e-16 -1.0
  outer loop
    vertex 6.156532362443119 -35.899250490842896 -1.621480727465041e-14
    vertex 7.999999999999999 0.0 0.0
    vertex 7.019649287424613 -35.163764416964774 -1.621480727465041e-14
  endloop
endfacet
facet normal 1.1930353354189744e-31 4.64154152924474e-16 -1.0
  outer loop
    vertex 7.019649287424613 -35.163764416964774 -1.621480727465041e-14
    vertex 7.999999999999999 0.0 0.0
    vertex 7.643729034936188 -34.21696187165552 -1.621480727465041e-14
  endloop
endfacet
facet normal 1.1930353354189744e-31 4.64154152924474e-16 -1.0
  outer loop
    vertex 7.643729034936188 -34.21696187165552 -1.621480727465041e-14
    vertex 7.999999999999999 0.0 0.0
    vertex 7.979369092579276 -33.133792289935506 -1.621480727465041e-14
  endloop
endfacet
facet normal 1.1930353354189744e-31 4.64154152924474e-16 -1.0
  outer loop
    vertex 7.979369092579276 -33.133792289935506 -1.621480727465041e-14
    vertex 7.999999999999999 0.0 0.0
    vertex 7.999999999999999 -31.999999999999996 -1.77635683940025e-14
  endloop
endfacet
facet normal 1.1930353354189744e-31 4.64154152924474e-16 -1.0
  outer loop
    vertex 1.8434676375568748 -35.899250490842896 -1.621480727465041e-14
    vertex 2.5511112605663957 -34.65059056765378 -1.973976537783528e-14
    vertex 2.87729690691151 -36.36519859190549 -1.621480727465041e-14
  endloop
endfacet
facet normal 1.1930353354189744e-31 4.64154152924474e-16 -1.0
  outer loop
    vertex 2.5511112605663957 -34.65059056765378 -1.973976537783528e-14
    vertex 1.8434676375568748 -35.899250490842896 -1.621480727465041e-14
    vertex 2.4999999999999982 -34.262362 -1.973976537783528e-14
  endloop
endfacet
facet normal 1.1930353354189744e-31 4.64154152924474e-16 -1.0
  outer loop
    vertex 2.87729690691151 -36.36519859190549 -1.621480727465041e-14
    vertex 2.5511112605663957 -34.65059056765378 -1.973976537783528e-14
    vertex 2.70096189432334 -35.012362 -1.973976537783528e-14
  endloop
endfacet
facet normal 1.1930353354189744e-31 4.64154152924474e-16 -1.0
  outer loop
    vertex 2.87729690691151 -36.36519859190549 -1.621480727465041e-14
    vertex 2.70096189432334 -35.012362 -1.973976537783528e-14
    vertex 2.939339828220177 -35.323022171779826 -1.973976537783528e-14
  endloop
endfacet
facet normal 1.1930353354189744e-31 4.64154152924474e-16 -1.0
  outer loop
    vertex 2.87729690691151 -36.36519859190549 -1.621480727465041e-14
    vertex 2.939339828220177 -35.323022171779826 -1.973976537783528e-14
    vertex 3.999999999999996 -36.524724000000006 -1.621480727465041e-14
  endloop
endfacet
facet normal 1.1930353354189744e-31 4.64154152924474e-16 -1.0
  outer loop
    vertex 3.999999999999996 -36.524724000000006 -1.621480727465041e-14
    vertex 2.939339828220177 -35.323022171779826 -1.973976537783528e-14
    vertex 3.249999999999998 -35.56140010567666 -1.973976537783528e-14
  endloop
endfacet
facet normal 1.1930353354189744e-31 4.64154152924474e-16 -1.0
  outer loop
    vertex 3.999999999999996 -36.524724000000006 -1.621480727465041e-14
    vertex 3.249999999999998 -35.56140010567666 -1.973976537783528e-14
    vertex 3.611771432346217 -35.71125073943361 -1.973976537783528e-14
  endloop
endfacet
facet normal 1.1930353354189744e-31 4.64154152924474e-16 -1.0
  outer loop
    vertex 3.999999999999996 -36.524724000000006 -1.621480727465041e-14
    vertex 3.611771432346217 -35.71125073943361 -1.973976537783528e-14
    vertex 3.999999999999998 -35.762362 -1.973976537783528e-14
  endloop
endfacet
facet normal 1.1930353354189744e-31 4.64154152924474e-16 -1.0
  outer loop
    vertex 3.999999999999996 -36.524724000000006 -1.621480727465041e-14
    vertex 3.999999999999998 -35.762362 -1.973976537783528e-14
    vertex 5.122703093088483 -36.36519859190549 -1.621480727465041e-14
  endloop
endfacet
facet normal 1.1930353354189744e-31 4.64154152924474e-16 -1.0
  outer loop
    vertex 5.122703093088483 -36.36519859190549 -1.621480727465041e-14
    vertex 3.999999999999998 -35.762362 -1.973976537783528e-14
    vertex 4.388228567653779 -35.71125073943361 -1.973976537783528e-14
  endloop
endfacet
facet normal 1.1930353354189744e-31 4.64154152924474e-16 -1.0
  outer loop
    vertex 5.122703093088483 -36.36519859190549 -1.621480727465041e-14
    vertex 4.388228567653779 -35.71125073943361 -1.973976537783528e-14
    vertex 4.749999999999998 -35.56140010567666 -1.973976537783528e-14
  endloop
endfacet
facet normal 1.1930353354189744e-31 4.64154152924474e-16 -1.0
  outer loop
    vertex 5.122703093088483 -36.36519859190549 -1.621480727465041e-14
    vertex 4.749999999999998 -35.56140010567666 -1.973976537783528e-14
    vertex 5.060660171779819 -35.323022171779826 -1.973976537783528e-14
  endloop
endfacet
facet normal 1.1930353354189744e-31 4.64154152924474e-16 -1.0
  outer loop
    vertex 5.122703093088483 -36.36519859190549 -1.621480727465041e-14
    vertex 5.060660171779819 -35.323022171779826 -1.973976537783528e-14
    vertex 5.299038105676655 -35.012362 -1.973976537783528e-14
  endloop
endfacet
facet normal 1.1930353354189744e-31 4.64154152924474e-16 -1.0
  outer loop
    vertex 5.122703093088483 -36.36519859190549 -1.621480727465041e-14
    vertex 5.299038105676655 -35.012362 -1.973976537783528e-14
    vertex 6.156532362443119 -35.899250490842896 -1.621480727465041e-14
  endloop
endfacet
facet normal 1.1930353354189744e-31 4.64154152924474e-16 -1.0
  outer loop
    vertex 6.156532362443119 -35.899250490842896 -1.621480727465041e-14
    vertex 5.299038105676655 -35.012362 -1.973976537783528e-14
    vertex 5.448888739433601 -34.650590567653786 -1.973976537783528e-14
  endloop
endfacet
facet normal 1.1930353354189744e-31 4.64154152924474e-16 -1.0
  outer loop
    vertex 6.156532362443119 -35.899250490842896 -1.621480727465041e-14
    vertex 5.448888739433601 -34.650590567653786 -1.973976537783528e-14
    vertex 5.499999999999998 -34.262362 -1.973976537783528e-14
  endloop
endfacet
facet normal -1.0 2.1041482964772958e-17 7.529608088402491e-17
  outer loop
    vertex 7.100000000000001 -10.666666666666671 7.999999999999994
    vertex 7.100000000000001 -16.0 7.099999999999994
    vertex 7.100000000000001 -16.000000000000004 7.999999999999991
  endloop
endfacet
facet normal -1.0 2.1041482964772958e-17 7.529608088402491e-17
  outer loop
    vertex 7.1 -5.639932965095795e-15 7.1
    vertex 7.100000000000001 -10.66666666666667 5.549999999999996
    vertex 7.100000000000001 -10.666666666666671 7.099999999999997
  endloop
endfacet
facet normal -1.0 2.1041482964772958e-17 7.529608088402491e-17
  outer loop
    vertex 7.100000000000001 -10.66666666666667 5.549999999999996
    vertex 7.1 -5.639932965095795e-15 7.1
    vertex 7.1 0.0 0.8999999999999996
  endloop
endfacet
facet normal -1.0 2.1041482964772958e-17 7.529608088402491e-17
  outer loop
    vertex 7.100000000000001 -16.0 7.099999999999994
    vertex 7.1 -31.099999999999998 0.8999999999999823
    vertex 7.1 -31.100000000000005 7.099999999999983
  endloop
endfacet
facet normal -1.0 2.1041482964772958e-17 7.529608088402491e-17
  outer loop
    vertex 7.1 -31.099999999999998 0.8999999999999823
    vertex 7.100000000000001 -16.0 7.099999999999994
    vertex 7.100000000000001 -10.66666666666667 0.8999999999999938
  endloop
endfacet
facet normal -1.0 2.1041482964772958e-17 7.529608088402491e-17
  outer loop
    vertex 7.100000000000001 -10.66666666666667 0.8999999999999938
    vertex 7.100000000000001 -16.0 7.099999999999994
    vertex 7.100000000000001 -10.666666666666671 7.099999999999997
  endloop
endfacet
facet normal -1.0 2.1041482964772958e-17 7.529608088402491e-17
  outer loop
    vertex 7.100000000000001 -10.666666666666671 7.099999999999997
    vertex 7.100000000000001 -16.0 7.099999999999994
    vertex 7.100000000000001 -10.666666666666671 7.999999999999994
  endloop
endfacet
facet normal -1.0 2.1041482964772958e-17 7.529608088402491e-17
  outer loop
    vertex 7.100000000000001 -10.66666666666667 0.8999999999999938
    vertex 7.100000000000001 -10.666666666666671 7.099999999999997
    vertex 7.100000000000001 -10.66666666666667 5.549999999999996
  endloop
endfacet
facet normal 3.101136161159705e-17 -5.543850019913329e-16 1.0
  outer loop
    vertex 7.1 -31.099999999999998 0.8999999999999823
    vertex 0.9000000000000026 -10.66666666666667 0.8999999999999938
    vertex 0.8999999999999996 -31.099999999999998 0.8999999999999827
  endloop
endfacet
facet normal 3.101136161159705e-17 -5.543850019913329e-16 1.0
  outer loop
    vertex 0.9000000000000026 -10.66666666666667 0.8999999999999938
    vertex 7.1 -31.099999999999998 0.8999999999999823
    vertex 7.100000000000001 -10.66666666666667 0.8999999999999938
  endloop
endfacet
facet normal 4.8732139675366847e-17 -1.0 -2.0214813494967006e-16
  outer loop
    vertex 7.100000000000001 -10.66666666666667 5.549999999999996
    vertex 0.9000000000000026 -10.66666666666667 0.8999999999999938
    vertex 7.100000000000001 -10.66666666666667 0.8999999999999938
  endloop
endfacet
facet normal 4.8732139675366847e-17 -1.0 -2.0214813494967006e-16
  outer loop
    vertex 0.9000000000000026 -10.66666666666667 0.8999999999999938
    vertex 7.100000000000001 -10.66666666666667 5.549999999999996
    vertex 0.9000000000000026 -10.66666666666667 5.549999999999996
  endloop
endfacet
facet normal 0.0 1.0 7.049916206369744e-16
  outer loop
    vertex 0.0 0.0 0.0
    vertex 0.8999999999999996 0.0 0.8999999999999999
    vertex 7.999999999999999 0.0 0.0
  endloop
endfacet
facet normal 0.0 1.0 7.049916206369744e-16
  outer loop
    vertex 0.8999999999999996 0.0 0.8999999999999999
    vertex 0.0 0.0 0.0
    vertex 0.0 -5.639932965095795e-15 7.999999999999999
  endloop
endfacet
facet normal 0.0 1.0 7.049916206369744e-16
  outer loop
    vertex 7.999999999999999 0.0 0.0
    vertex 0.8999999999999996 0.0 0.8999999999999999
    vertex 7.1 0.0 0.8999999999999996
  endloop
endfacet
facet normal 0.0 1.0 7.049916206369744e-16
  outer loop
    vertex 0.8999999999999996 0.0 0.8999999999999999
    vertex 0.0 -5.639932965095795e-15 7.999999999999999
    vertex 0.8999999999999999 -5.639932965095795e-15 7.1
  endloop
endfacet
facet normal 0.0 1.0 7.049916206369744e-16
  outer loop
    vertex 0.8999999999999999 -5.639932965095795e-15 7.1
    vertex 0.0 -5.639932965095795e-15 7.999999999999999
    vertex 7.1 -5.639932965095795e-15 7.1
  endloop
endfacet
facet normal 0.0 1.0 7.049916206369744e-16
  outer loop
    vertex 7.1 0.0 0.8999999999999996
    vertex 7.999999999999999 -5.639932965095795e-15 7.999999999999999
    vertex 7.999999999999999 0.0 0.0
  endloop
endfacet
facet normal 0.0 1.0 7.049916206369744e-16
  outer loop
    vertex 7.999999999999999 -5.639932965095795e-15 7.999999999999999
    vertex 7.1 0.0 0.8999999999999996
    vertex 7.1 -5.639932965095795e-15 7.1
  endloop
endfacet
facet normal 0.0 1.0 7.049916206369744e-16
  outer loop
    vertex 7.999999999999999 -5.639932965095795e-15 7.999999999999999
    vertex 7.1 -5.639932965095795e-15 7.1
    vertex 0.0 -5.639932965095795e-15 7.999999999999999
  endloop
endfacet
facet normal -1.0 0.0 0.0
  outer loop
    vertex 0.0 -5.639932965095795e-15 7.999999999999999
    vertex 0.0 -31.999999999999996 -1.77635683940025e-14
    vertex 0.0 -32.0 7.999999999999981
  endloop
endfacet
facet normal -0.9999586209202692 -0.009097057064430116 -3.204102490287866e-18
  outer loop
    vertex 0.0 -31.999999999999996 -1.77635683940025e-14
    vertex 0.0 -5.639932965095795e-15 7.999999999999999
    vertex 0.0 0.0 0.0
  endloop
endfacet
facet normal 2.119015054120151e-33 1.0 3.1332960917198968e-15
  outer loop
    vertex 0.8999999999999998 -16.000000000000004 7.999999999999991
    vertex 7.100000000000001 -16.0 7.099999999999994
    vertex 0.8999999999999998 -16.0 7.099999999999994
  endloop
endfacet
facet normal 2.119015054120151e-33 1.0 3.1332960917198968e-15
  outer loop
    vertex 7.100000000000001 -16.0 7.099999999999994
    vertex 0.8999999999999998 -16.000000000000004 7.999999999999991
    vertex 7.100000000000001 -16.000000000000004 7.999999999999991
  endloop
endfacet
facet normal 1.576322526356021e-17 0.39961628235407337 0.9166825114932158
  outer loop
    vertex 0.9000000000000026 -10.66666666666667 5.549999999999996
    vertex 7.1 0.0 0.8999999999999996
    vertex 0.8999999999999996 0.0 0.8999999999999999
  endloop
endfacet
facet normal 1.576322526356021e-17 0.39961628235407337 0.9166825114932158
  outer loop
    vertex 7.1 0.0 0.8999999999999996
    vertex 0.9000000000000026 -10.66666666666667 5.549999999999996
    vertex 7.100000000000001 -10.66666666666667 5.549999999999996
  endloop
endfacet
facet normal 0.0 1.0 5.551115123125783e-16
  outer loop
    vertex 0.8999999999999996 -31.099999999999998 0.8999999999999827
    vertex 7.1 -31.100000000000005 7.099999999999983
    vertex 7.1 -31.099999999999998 0.8999999999999823
  endloop
endfacet
facet normal 0.0 1.0 5.551115123125783e-16
  outer loop
    vertex 7.1 -31.100000000000005 7.099999999999983
    vertex 0.8999999999999996 -31.099999999999998 0.8999999999999827
    vertex 0.8999999999999999 -31.100000000000005 7.099999999999983
  endloop
endfacet
facet normal -0.9873322186887318 -0.15866659994840243 -3.2361518805283722e-18
  outer loop
    vertex 0.02063090742072375 -33.1337922899355 7.999999999999981
    vertex 0.35627096506380995 -34.21696187165551 -1.621480727465041e-14
    vertex 0.35627096506380995 -34.21696187165551 7.999999999999981
  endloop
endfacet
facet normal -0.9040556401447779 -0.42741478627021773 0.0
  outer loop
    vertex 0.35627096506380995 -34.21696187165551 -1.621480727465041e-14
    vertex 0.02063090742072375 -33.1337922899355 7.999999999999981
    vertex 0.02063090742072375 -33.1337922899355 -1.621480727465041e-14
  endloop
endfacet
facet normal 0.749213496223433 -0.6623285718407895 0.0
  outer loop
    vertex 7.019649287424613 -35.163764416964774 7.999999999999981
    vertex 6.156532362443119 -35.899250490842896 -1.621480727465041e-14
    vertex 7.019649287424613 -35.163764416964774 -1.621480727465041e-14
  endloop
endfacet
facet normal 0.5350631802552748 -0.8448120460404855 0.0
  outer loop
    vertex 6.156532362443119 -35.899250490842896 -1.621480727465041e-14
    vertex 7.019649287424613 -35.163764416964774 7.999999999999981
    vertex 6.156532362443119 -35.899250490842896 7.999999999999981
  endloop
endfacet
facet normal -4.4618075867928045e-17 -1.0 0.0
  outer loop
    vertex 3.999999999999996 -36.524724000000006 7.999999999999981
    vertex 2.87729690691151 -36.36519859190549 -1.621480727465041e-14
    vertex 3.999999999999996 -36.524724000000006 -1.621480727465041e-14
  endloop
endfacet
facet normal -0.2785569546425967 -0.9604197119073735 0.0
  outer loop
    vertex 2.87729690691151 -36.36519859190549 -1.621480727465041e-14
    vertex 3.999999999999996 -36.524724000000006 7.999999999999981
    vertex 2.87729690691151 -36.36519859190549 7.999999999999981
  endloop
endfacet
facet normal 0.9040556401447768 -0.42741478627022 0.0
  outer loop
    vertex 7.643729034936188 -34.21696187165552 -1.621480727465041e-14
    vertex 7.019649287424613 -35.163764416964774 7.999999999999981
    vertex 7.019649287424613 -35.163764416964774 -1.621480727465041e-14
  endloop
endfacet
facet normal 0.749213496223433 -0.6623285718407895 0.0
  outer loop
    vertex 7.019649287424613 -35.163764416964774 7.999999999999981
    vertex 7.643729034936188 -34.21696187165552 -1.621480727465041e-14
    vertex 7.643729034936188 -34.21696187165552 7.999999999999981
  endloop
endfacet
facet normal -0.9999586209202691 -0.009097057064430125 -3.2041024902878686e-18
  outer loop
    vertex 0.0 -32.0 7.999999999999981
    vertex 0.02063090742072375 -33.1337922899355 -1.621480727465041e-14
    vertex 0.02063090742072375 -33.1337922899355 7.999999999999981
  endloop
endfacet
facet normal -0.9873322186887318 -0.15866659994840238 -3.2361518805283734e-18
  outer loop
    vertex 0.02063090742072375 -33.1337922899355 -1.621480727465041e-14
    vertex 0.0 -32.0 7.999999999999981
    vertex 0.0 -31.999999999999996 -1.77635683940025e-14
  endloop
endfacet
facet normal -0.2785569546425967 -0.9604197119073735 0.0
  outer loop
    vertex 2.87729690691151 -36.36519859190549 7.999999999999981
    vertex 1.8434676375568748 -35.899250490842896 -1.621480727465041e-14
    vertex 2.87729690691151 -36.36519859190549 -1.621480727465041e-14
  endloop
endfacet
facet normal -0.5350631802552765 -0.8448120460404843 0.0
  outer loop
    vertex 1.8434676375568748 -35.899250490842896 -1.621480727465041e-14
    vertex 2.87729690691151 -36.36519859190549 7.999999999999981
    vertex 1.8434676375568748 -35.899250490842896 7.999999999999981
  endloop
endfacet
facet normal 0.27855695464259655 -0.9604197119073737 0.0
  outer loop
    vertex 5.122703093088483 -36.36519859190549 7.999999999999981
    vertex 3.999999999999996 -36.524724000000006 -1.621480727465041e-14
    vertex 5.122703093088483 -36.36519859190549 -1.621480727465041e-14
  endloop
endfacet
facet normal -4.4618075867928045e-17 -1.0 0.0
  outer loop
    vertex 3.999999999999996 -36.524724000000006 -1.621480727465041e-14
    vertex 5.122703093088483 -36.36519859190549 7.999999999999981
    vertex 3.999999999999996 -36.524724000000006 7.999999999999981
  endloop
endfacet
facet normal 0.9873322186887316 -0.15866659994840387 -3.1959837944394356e-18
  outer loop
    vertex 7.979369092579276 -33.133792289935506 -1.621480727465041e-14
    vertex 7.643729034936188 -34.21696187165552 7.999999999999981
    vertex 7.643729034936188 -34.21696187165552 -1.621480727465041e-14
  endloop
endfacet
facet normal 0.9040556401447768 -0.42741478627022 0.0
  outer loop
    vertex 7.643729034936188 -34.21696187165552 7.999999999999981
    vertex 7.979369092579276 -33.133792289935506 -1.621480727465041e-14
    vertex 7.979369092579276 -33.133792289935506 7.999999999999981
  endloop
endfacet
facet normal -0.9040556401447779 -0.42741478627021773 0.0
  outer loop
    vertex 0.35627096506380995 -34.21696187165551 7.999999999999981
    vertex 0.9803507125753816 -35.16376441696477 -1.621480727465041e-14
    vertex 0.9803507125753816 -35.16376441696477 7.999999999999981
  endloop
endfacet
facet normal -0.749213496223435 -0.6623285718407874 0.0
  outer loop
    vertex 0.9803507125753816 -35.16376441696477 -1.621480727465041e-14
    vertex 0.35627096506380995 -34.21696187165551 7.999999999999981
    vertex 0.35627096506380995 -34.21696187165551 -1.621480727465041e-14
  endloop
endfacet
facet normal 0.5350631802552748 -0.8448120460404855 0.0
  outer loop
    vertex 6.156532362443119 -35.899250490842896 7.999999999999981
    vertex 5.122703093088483 -36.36519859190549 -1.621480727465041e-14
    vertex 6.156532362443119 -35.899250490842896 -1.621480727465041e-14
  endloop
endfacet
facet normal 0.27855695464259655 -0.9604197119073737 0.0
  outer loop
    vertex 5.122703093088483 -36.36519859190549 -1.621480727465041e-14
    vertex 6.156532362443119 -35.899250490842896 7.999999999999981
    vertex 5.122703093088483 -36.36519859190549 7.999999999999981
  endloop
endfacet
facet normal 0.9999586209202692 -0.009097057064430022 -3.1643322108266152e-18
  outer loop
    vertex 7.999999999999999 -31.999999999999996 -1.77635683940025e-14
    vertex 7.979369092579276 -33.133792289935506 7.999999999999981
    vertex 7.979369092579276 -33.133792289935506 -1.621480727465041e-14
  endloop
endfacet
facet normal 0.9873322186887317 -0.15866659994840396 -3.195983794439435e-18
  outer loop
    vertex 7.979369092579276 -33.133792289935506 7.999999999999981
    vertex 7.999999999999999 -31.999999999999996 -1.77635683940025e-14
    vertex 7.999999999999999 -32.0 7.999999999999981
  endloop
endfacet
facet normal -0.5350631802552765 -0.8448120460404843 0.0
  outer loop
    vertex 1.8434676375568748 -35.899250490842896 7.999999999999981
    vertex 0.9803507125753816 -35.16376441696477 -1.621480727465041e-14
    vertex 1.8434676375568748 -35.899250490842896 -1.621480727465041e-14
  endloop
endfacet
facet normal -0.749213496223435 -0.6623285718407874 0.0
  outer loop
    vertex 0.9803507125753816 -35.16376441696477 -1.621480727465041e-14
    vertex 1.8434676375568748 -35.899250490842896 7.999999999999981
    vertex 0.9803507125753816 -35.16376441696477 7.999999999999981
  endloop
endfacet
facet normal -0.8660254037844387 -0.5 0.0
  outer loop
    vertex 5.299038105676657 -33.512362 7.999999999999981
    vertex 5.448888739433601 -33.87413343234623 -1.973976537783528e-14
    vertex 5.448888739433601 -33.87413343234623 7.999999999999981
  endloop
endfacet
facet normal -0.9659258262890685 -0.2588190451025198 0.0
  outer loop
    vertex 5.448888739433601 -33.87413343234623 -1.973976537783528e-14
    vertex 5.299038105676657 -33.512362 7.999999999999981
    vertex 5.299038105676657 -33.512362 -1.973976537783528e-14
  endloop
endfacet
facet normal -0.7071067811865472 -0.7071067811865478 0.0
  outer loop
    vertex 5.06066017177982 -33.20170182822019 7.999999999999981
    vertex 5.299038105676657 -33.512362 -1.973976537783528e-14
    vertex 5.299038105676657 -33.512362 7.999999999999981
  endloop
endfacet
facet normal -0.8660254037844387 -0.5 0.0
  outer loop
    vertex 5.299038105676657 -33.512362 -1.973976537783528e-14
    vertex 5.06066017177982 -33.20170182822019 7.999999999999981
    vertex 5.06066017177982 -33.20170182822019 -1.973976537783528e-14
  endloop
endfacet
facet normal -0.7071067811865472 -0.7071067811865478 0.0
  outer loop
    vertex 5.06066017177982 -33.20170182822019 7.999999999999981
    vertex 4.749999999999999 -32.963323894323345 -1.973976537783528e-14
    vertex 5.06066017177982 -33.20170182822019 -1.973976537783528e-14
  endloop
endfacet
facet normal -0.5000000000000032 -0.8660254037844369 0.0
  outer loop
    vertex 4.749999999999999 -32.963323894323345 -1.973976537783528e-14
    vertex 5.06066017177982 -33.20170182822019 7.999999999999981
    vertex 4.749999999999999 -32.963323894323345 7.999999999999981
  endloop
endfacet
facet normal -0.5000000000000032 -0.8660254037844369 0.0
  outer loop
    vertex 4.749999999999999 -32.963323894323345 7.999999999999981
    vertex 4.388228567653781 -32.813473260566404 -1.973976537783528e-14
    vertex 4.749999999999999 -32.963323894323345 -1.973976537783528e-14
  endloop
endfacet
facet normal -0.25881904510251974 -0.9659258262890685 0.0
  outer loop
    vertex 4.388228567653781 -32.813473260566404 -1.973976537783528e-14
    vertex 4.749999999999999 -32.963323894323345 7.999999999999981
    vertex 4.388228567653781 -32.813473260566404 7.999999999999981
  endloop
endfacet
facet normal -1.2475553853905654e-16 -1.0 0.0
  outer loop
    vertex 3.999999999999999 -32.762362 7.999999999999981
    vertex 3.611771432346217 -32.813473260566404 -1.973976537783528e-14
    vertex 3.999999999999999 -32.762362 -1.973976537783528e-14
  endloop
endfacet
facet normal 0.25881904510251963 -0.9659258262890685 0.0
  outer loop
    vertex 3.611771432346217 -32.813473260566404 -1.973976537783528e-14
    vertex 3.999999999999999 -32.762362 7.999999999999981
    vertex 3.611771432346217 -32.813473260566404 7.999999999999981
  endloop
endfacet
facet normal 0.25881904510251963 -0.9659258262890685 0.0
  outer loop
    vertex 3.611771432346217 -32.813473260566404 7.999999999999981
    vertex 3.2499999999999982 -32.963323894323345 -1.973976537783528e-14
    vertex 3.611771432346217 -32.813473260566404 -1.973976537783528e-14
  endloop
endfacet
facet normal 0.4999999999999982 -0.8660254037844397 0.0
  outer loop
    vertex 3.2499999999999982 -32.963323894323345 -1.973976537783528e-14
    vertex 3.611771432346217 -32.813473260566404 7.999999999999981
    vertex 3.2499999999999982 -32.963323894323345 7.999999999999981
  endloop
endfacet
facet normal 0.866025403784439 -0.49999999999999944 0.0
  outer loop
    vertex 2.70096189432334 -33.512362 -1.973976537783528e-14
    vertex 2.5511112605663957 -33.87413343234622 7.999999999999981
    vertex 2.5511112605663957 -33.87413343234622 -1.973976537783528e-14
  endloop
endfacet
facet normal 0.9659258262890679 -0.25881904510252246 0.0
  outer loop
    vertex 2.5511112605663957 -33.87413343234622 7.999999999999981
    vertex 2.70096189432334 -33.512362 -1.973976537783528e-14
    vertex 2.70096189432334 -33.512362 7.999999999999981
  endloop
endfacet
facet normal 0.8660254037844406 0.4999999999999966 0.0
  outer loop
    vertex 2.70096189432334 -35.012362 -1.973976537783528e-14
    vertex 2.939339828220177 -35.323022171779826 7.999999999999981
    vertex 2.939339828220177 -35.323022171779826 -1.973976537783528e-14
  endloop
endfacet
facet normal 0.7071067811865468 0.7071067811865482 0.0
  outer loop
    vertex 2.939339828220177 -35.323022171779826 7.999999999999981
    vertex 2.70096189432334 -35.012362 -1.973976537783528e-14
    vertex 2.70096189432334 -35.012362 7.999999999999981
  endloop
endfacet
facet normal 0.49999999999999817 0.8660254037844398 0.0
  outer loop
    vertex 3.249999999999998 -35.56140010567666 7.999999999999981
    vertex 3.611771432346217 -35.71125073943361 -1.973976537783528e-14
    vertex 3.249999999999998 -35.56140010567666 -1.973976537783528e-14
  endloop
endfacet
facet normal 0.2588190451025195 0.9659258262890688 0.0
  outer loop
    vertex 3.611771432346217 -35.71125073943361 -1.973976537783528e-14
    vertex 3.249999999999998 -35.56140010567666 7.999999999999981
    vertex 3.611771432346217 -35.71125073943361 7.999999999999981
  endloop
endfacet
facet normal 0.2588190451025195 0.9659258262890688 0.0
  outer loop
    vertex 3.611771432346217 -35.71125073943361 7.999999999999981
    vertex 3.999999999999998 -35.762362 -1.973976537783528e-14
    vertex 3.611771432346217 -35.71125073943361 -1.973976537783528e-14
  endloop
endfacet
facet normal 1.1584442864340965e-16 1.0 0.0
  outer loop
    vertex 3.999999999999998 -35.762362 -1.973976537783528e-14
    vertex 3.611771432346217 -35.71125073943361 7.999999999999981
    vertex 3.999999999999998 -35.762362 7.999999999999981
  endloop
endfacet
facet normal -0.2588190451025194 0.9659258262890688 0.0
  outer loop
    vertex 4.388228567653779 -35.71125073943361 7.999999999999981
    vertex 4.749999999999998 -35.56140010567666 -1.973976537783528e-14
    vertex 4.388228567653779 -35.71125073943361 -1.973976537783528e-14
  endloop
endfacet
facet normal -0.4999999999999979 0.8660254037844399 0.0
  outer loop
    vertex 4.749999999999998 -35.56140010567666 -1.973976537783528e-14
    vertex 4.388228567653779 -35.71125073943361 7.999999999999981
    vertex 4.749999999999998 -35.56140010567666 7.999999999999981
  endloop
endfacet
facet normal -0.9659258262890676 0.2588190451025232 0.0
  outer loop
    vertex 5.448888739433601 -34.650590567653786 7.999999999999981
    vertex 5.299038105676655 -35.012362 -1.973976537783528e-14
    vertex 5.299038105676655 -35.012362 7.999999999999981
  endloop
endfacet
facet normal -0.866025403784439 0.49999999999999944 0.0
  outer loop
    vertex 5.299038105676655 -35.012362 -1.973976537783528e-14
    vertex 5.448888739433601 -34.650590567653786 7.999999999999981
    vertex 5.448888739433601 -34.650590567653786 -1.973976537783528e-14
  endloop
endfacet
facet normal 0.4999999999999982 -0.8660254037844397 0.0
  outer loop
    vertex 3.2499999999999982 -32.963323894323345 7.999999999999981
    vertex 2.9393398282201773 -33.20170182822018 -1.973976537783528e-14
    vertex 3.2499999999999982 -32.963323894323345 -1.973976537783528e-14
  endloop
endfacet
facet normal 0.7071067811865462 -0.7071067811865489 0.0
  outer loop
    vertex 2.9393398282201773 -33.20170182822018 -1.973976537783528e-14
    vertex 3.2499999999999982 -32.963323894323345 7.999999999999981
    vertex 2.9393398282201773 -33.20170182822018 7.999999999999981
  endloop
endfacet
facet normal 0.7071067811865462 -0.7071067811865489 0.0
  outer loop
    vertex 2.9393398282201773 -33.20170182822018 -1.973976537783528e-14
    vertex 2.70096189432334 -33.512362 7.999999999999981
    vertex 2.70096189432334 -33.512362 -1.973976537783528e-14
  endloop
endfacet
facet normal 0.866025403784439 -0.49999999999999944 0.0
  outer loop
    vertex 2.70096189432334 -33.512362 7.999999999999981
    vertex 2.9393398282201773 -33.20170182822018 -1.973976537783528e-14
    vertex 2.9393398282201773 -33.20170182822018 7.999999999999981
  endloop
endfacet
facet normal 0.9659258262890679 -0.25881904510252246 0.0
  outer loop
    vertex 2.5511112605663957 -33.87413343234622 -1.973976537783528e-14
    vertex 2.4999999999999982 -34.262362 7.999999999999981
    vertex 2.4999999999999982 -34.262362 -1.973976537783528e-14
  endloop
endfacet
facet normal 1.0 9.534887588342189e-16 0.0
  outer loop
    vertex 2.4999999999999982 -34.262362 7.999999999999981
    vertex 2.5511112605663957 -33.87413343234622 -1.973976537783528e-14
    vertex 2.5511112605663957 -33.87413343234622 7.999999999999981
  endloop
endfacet
facet normal 1.1584442864340965e-16 1.0 0.0
  outer loop
    vertex 3.999999999999998 -35.762362 7.999999999999981
    vertex 4.388228567653779 -35.71125073943361 -1.973976537783528e-14
    vertex 3.999999999999998 -35.762362 -1.973976537783528e-14
  endloop
endfacet
facet normal -0.2588190451025194 0.9659258262890688 0.0
  outer loop
    vertex 4.388228567653779 -35.71125073943361 -1.973976537783528e-14
    vertex 3.999999999999998 -35.762362 7.999999999999981
    vertex 4.388228567653779 -35.71125073943361 7.999999999999981
  endloop
endfacet
facet normal -0.866025403784439 0.49999999999999944 0.0
  outer loop
    vertex 5.299038105676655 -35.012362 7.999999999999981
    vertex 5.060660171779819 -35.323022171779826 -1.973976537783528e-14
    vertex 5.060660171779819 -35.323022171779826 7.999999999999981
  endloop
endfacet
facet normal -0.7071067811865468 0.7071067811865482 0.0
  outer loop
    vertex 5.060660171779819 -35.323022171779826 -1.973976537783528e-14
    vertex 5.299038105676655 -35.012362 7.999999999999981
    vertex 5.299038105676655 -35.012362 -1.973976537783528e-14
  endloop
endfacet
facet normal -1.0 -9.534887588342189e-16 0.0
  outer loop
    vertex 5.499999999999998 -34.262362 7.999999999999981
    vertex 5.448888739433601 -34.650590567653786 -1.973976537783528e-14
    vertex 5.448888739433601 -34.650590567653786 7.999999999999981
  endloop
endfacet
facet normal -0.9659258262890676 0.2588190451025232 0.0
  outer loop
    vertex 5.448888739433601 -34.650590567653786 -1.973976537783528e-14
    vertex 5.499999999999998 -34.262362 7.999999999999981
    vertex 5.499999999999998 -34.262362 -1.973976537783528e-14
  endloop
endfacet
facet normal -0.9659258262890685 -0.2588190451025198 0.0
  outer loop
    vertex 5.448888739433601 -33.87413343234623 7.999999999999981
    vertex 5.499999999999998 -34.262362 -1.973976537783528e-14
    vertex 5.499999999999998 -34.262362 7.999999999999981
  endloop
endfacet
facet normal -1.0 -9.534887588342189e-16 0.0
  outer loop
    vertex 5.499999999999998 -34.262362 -1.973976537783528e-14
    vertex 5.448888739433601 -33.87413343234623 7.999999999999981
    vertex 5.448888739433601 -33.87413343234623 -1.973976537783528e-14
  endloop
endfacet
facet normal -0.25881904510251974 -0.9659258262890685 0.0
  outer loop
    vertex 4.388228567653781 -32.813473260566404 7.999999999999981
    vertex 3.999999999999999 -32.762362 -1.973976537783528e-14
    vertex 4.388228567653781 -32.813473260566404 -1.973976537783528e-14
  endloop
endfacet
facet normal -1.2475553853905654e-16 -1.0 0.0
  outer loop
    vertex 3.999999999999999 -32.762362 -1.973976537783528e-14
    vertex 4.388228567653781 -32.813473260566404 7.999999999999981
    vertex 3.999999999999999 -32.762362 7.999999999999981
  endloop
endfacet
facet normal 0.7071067811865468 0.7071067811865482 0.0
  outer loop
    vertex 2.939339828220177 -35.323022171779826 7.999999999999981
    vertex 3.249999999999998 -35.56140010567666 -1.973976537783528e-14
    vertex 2.939339828220177 -35.323022171779826 -1.973976537783528e-14
  endloop
endfacet
facet normal 0.49999999999999817 0.8660254037844398 0.0
  outer loop
    vertex 3.249999999999998 -35.56140010567666 -1.973976537783528e-14
    vertex 2.939339828220177 -35.323022171779826 7.999999999999981
    vertex 3.249999999999998 -35.56140010567666 7.999999999999981
  endloop
endfacet
facet normal -0.4999999999999979 0.8660254037844399 0.0
  outer loop
    vertex 4.749999999999998 -35.56140010567666 7.999999999999981
    vertex 5.060660171779819 -35.323022171779826 -1.973976537783528e-14
    vertex 4.749999999999998 -35.56140010567666 -1.973976537783528e-14
  endloop
endfacet
facet normal -0.7071067811865468 0.7071067811865482 0.0
  outer loop
    vertex 5.060660171779819 -35.323022171779826 -1.973976537783528e-14
    vertex 4.749999999999998 -35.56140010567666 7.999999999999981
    vertex 5.060660171779819 -35.323022171779826 7.999999999999981
  endloop
endfacet
facet normal 1.0 9.534887588342189e-16 0.0
  outer loop
    vertex 2.4999999999999982 -34.262362 -1.973976537783528e-14
    vertex 2.5511112605663957 -34.65059056765378 7.999999999999981
    vertex 2.5511112605663957 -34.65059056765378 -1.973976537783528e-14
  endloop
endfacet
facet normal 0.9659258262890684 0.25881904510252063 0.0
  outer loop
    vertex 2.5511112605663957 -34.65059056765378 7.999999999999981
    vertex 2.4999999999999982 -34.262362 -1.973976537783528e-14
    vertex 2.4999999999999982 -34.262362 7.999999999999981
  endloop
endfacet
facet normal 0.9659258262890684 0.25881904510252063 0.0
  outer loop
    vertex 2.5511112605663957 -34.65059056765378 -1.973976537783528e-14
    vertex 2.70096189432334 -35.012362 7.999999999999981
    vertex 2.70096189432334 -35.012362 -1.973976537783528e-14
  endloop
endfacet
facet normal 0.8660254037844406 0.4999999999999966 0.0
  outer loop
    vertex 2.70096189432334 -35.012362 7.999999999999981
    vertex 2.5511112605663957 -34.65059056765378 -1.973976537783528e-14
    vertex 2.5511112605663957 -34.65059056765378 7.999999999999981
  endloop
endfacet
facet normal -1.7469666877633316e-31 -5.213857359722107e-16 1.0
  outer loop
    vertex 1.8434676375568748 -35.899250490842896 7.999999999999981
    vertex 2.5511112605663957 -34.65059056765378 7.999999999999981
    vertex 2.4999999999999982 -34.262362 7.999999999999981
  endloop
endfacet
facet normal -1.7469666877633316e-31 -5.213857359722107e-16 1.0
  outer loop
    vertex 2.5511112605663957 -34.65059056765378 7.999999999999981
    vertex 1.8434676375568748 -35.899250490842896 7.999999999999981
    vertex 2.87729690691151 -36.36519859190549 7.999999999999981
  endloop
endfacet
facet normal -1.7469666877633316e-31 -5.213857359722107e-16 1.0
  outer loop
    vertex 2.5511112605663957 -34.65059056765378 7.999999999999981
    vertex 2.87729690691151 -36.36519859190549 7.999999999999981
    vertex 2.70096189432334 -35.012362 7.999999999999981
  endloop
endfacet
facet normal -1.7469666877633316e-31 -5.213857359722107e-16 1.0
  outer loop
    vertex 2.70096189432334 -35.012362 7.999999999999981
    vertex 2.87729690691151 -36.36519859190549 7.999999999999981
    vertex 2.939339828220177 -35.323022171779826 7.999999999999981
  endloop
endfacet
facet normal -1.7469666877633316e-31 -5.213857359722107e-16 1.0
  outer loop
    vertex 2.939339828220177 -35.323022171779826 7.999999999999981
    vertex 2.87729690691151 -36.36519859190549 7.999999999999981
    vertex 3.999999999999996 -36.524724000000006 7.999999999999981
  endloop
endfacet
facet normal -1.7469666877633316e-31 -5.213857359722107e-16 1.0
  outer loop
    vertex 2.939339828220177 -35.323022171779826 7.999999999999981
    vertex 3.999999999999996 -36.524724000000006 7.999999999999981
    vertex 3.249999999999998 -35.56140010567666 7.999999999999981
  endloop
endfacet
facet normal -1.7469666877633316e-31 -5.213857359722107e-16 1.0
  outer loop
    vertex 3.249999999999998 -35.56140010567666 7.999999999999981
    vertex 3.999999999999996 -36.524724000000006 7.999999999999981
    vertex 3.611771432346217 -35.71125073943361 7.999999999999981
  endloop
endfacet
facet normal -1.7469666877633316e-31 -5.213857359722107e-16 1.0
  outer loop
    vertex 3.611771432346217 -35.71125073943361 7.999999999999981
    vertex 3.999999999999996 -36.524724000000006 7.999999999999981
    vertex 3.999999999999998 -35.762362 7.999999999999981
  endloop
endfacet
facet normal -1.7469666877633316e-31 -5.213857359722107e-16 1.0
  outer loop
    vertex 3.999999999999998 -35.762362 7.999999999999981
    vertex 3.999999999999996 -36.524724000000006 7.999999999999981
    vertex 5.122703093088483 -36.36519859190549 7.999999999999981
  endloop
endfacet
facet normal -1.7469666877633316e-31 -5.213857359722107e-16 1.0
  outer loop
    vertex 3.999999999999998 -35.762362 7.999999999999981
    vertex 5.122703093088483 -36.36519859190549 7.999999999999981
    vertex 4.388228567653779 -35.71125073943361 7.999999999999981
  endloop
endfacet
facet normal -1.7469666877633316e-31 -5.213857359722107e-16 1.0
  outer loop
    vertex 4.388228567653779 -35.71125073943361 7.999999999999981
    vertex 5.122703093088483 -36.36519859190549 7.999999999999981
    vertex 4.749999999999998 -35.56140010567666 7.999999999999981
  endloop
endfacet
facet normal -1.7469666877633316e-31 -5.213857359722107e-16 1.0
  outer loop
    vertex 4.749999999999998 -35.56140010567666 7.999999999999981
    vertex 5.122703093088483 -36.36519859190549 7.999999999999981
    vertex 5.060660171779819 -35.323022171779826 7.999999999999981
  endloop
endfacet
facet normal -1.7469666877633316e-31 -5.213857359722107e-16 1.0
  outer loop
    vertex 5.060660171779819 -35.323022171779826 7.999999999999981
    vertex 5.122703093088483 -36.36519859190549 7.999999999999981
    vertex 5.299038105676655 -35.012362 7.999999999999981
  endloop
endfacet
facet normal -1.7469666877633316e-31 -5.213857359722107e-16 1.0
  outer loop
    vertex 5.299038105676655 -35.012362 7.999999999999981
    vertex 5.122703093088483 -36.36519859190549 7.999999999999981
    vertex 6.156532362443119 -35.899250490842896 7.999999999999981
  endloop
endfacet
facet normal -1.7469666877633316e-31 -5.213857359722107e-16 1.0
  outer loop
    vertex 5.299038105676655 -35.012362 7.999999999999981
    vertex 6.156532362443119 -35.899250490842896 7.999999999999981
    vertex 5.448888739433601 -34.650590567653786 7.999999999999981
  endloop
endfacet
facet normal -1.7469666877633316e-31 -5.213857359722107e-16 1.0
  outer loop
    vertex 5.448888739433601 -34.650590567653786 7.999999999999981
    vertex 6.156532362443119 -35.899250490842896 7.999999999999981
    vertex 5.499999999999998 -34.262362 7.999999999999981
  endloop
endfacet
facet normal -1.7469666877633316e-31 -5.213857359722107e-16 1.0
  outer loop
    vertex 0.9803507125753816 -35.16376441696477 7.999999999999981
    vertex 0.8999999999999998 -16.000000000000004 7.999999999999991
    vertex 0.35627096506380995 -34.21696187165551 7.999999999999981
  endloop
endfacet
facet normal -1.7469666877633316e-31 -5.213857359722107e-16 1.0
  outer loop
    vertex 0.8999999999999998 -16.000000000000004 7.999999999999991
    vertex 0.9803507125753816 -35.16376441696477 7.999999999999981
    vertex 7.100000000000001 -16.000000000000004 7.999999999999991
  endloop
endfacet
facet normal -1.7469666877633316e-31 -5.213857359722107e-16 1.0
  outer loop
    vertex 7.100000000000001 -16.000000000000004 7.999999999999991
    vertex 0.9803507125753816 -35.16376441696477 7.999999999999981
    vertex 1.8434676375568748 -35.899250490842896 7.999999999999981
  endloop
endfacet
facet normal -1.7469666877633316e-31 -5.213857359722107e-16 1.0
  outer loop
    vertex 7.100000000000001 -16.000000000000004 7.999999999999991
    vertex 1.8434676375568748 -35.899250490842896 7.999999999999981
    vertex 2.5511112605663957 -33.87413343234622 7.999999999999981
  endloop
endfacet
facet normal -1.7469666877633316e-31 -5.213857359722107e-16 1.0
  outer loop
    vertex 2.5511112605663957 -33.87413343234622 7.999999999999981
    vertex 1.8434676375568748 -35.899250490842896 7.999999999999981
    vertex 2.4999999999999982 -34.262362 7.999999999999981
  endloop
endfacet
facet normal -1.7469666877633316e-31 -5.213857359722107e-16 1.0
  outer loop
    vertex 7.100000000000001 -16.000000000000004 7.999999999999991
    vertex 2.5511112605663957 -33.87413343234622 7.999999999999981
    vertex 2.70096189432334 -33.512362 7.999999999999981
  endloop
endfacet
facet normal -1.7469666877633316e-31 -5.213857359722107e-16 1.0
  outer loop
    vertex 7.100000000000001 -16.000000000000004 7.999999999999991
    vertex 2.70096189432334 -33.512362 7.999999999999981
    vertex 2.9393398282201773 -33.20170182822018 7.999999999999981
  endloop
endfacet
facet normal -1.7469666877633316e-31 -5.213857359722107e-16 1.0
  outer loop
    vertex 7.100000000000001 -16.000000000000004 7.999999999999991
    vertex 2.9393398282201773 -33.20170182822018 7.999999999999981
    vertex 3.2499999999999982 -32.963323894323345 7.999999999999981
  endloop
endfacet
facet normal -1.7469666877633316e-31 -5.213857359722107e-16 1.0
  outer loop
    vertex 7.100000000000001 -16.000000000000004 7.999999999999991
    vertex 3.2499999999999982 -32.963323894323345 7.999999999999981
    vertex 3.611771432346217 -32.813473260566404 7.999999999999981
  endloop
endfacet
facet normal -1.7469666877633316e-31 -5.213857359722107e-16 1.0
  outer loop
    vertex 7.100000000000001 -16.000000000000004 7.999999999999991
    vertex 3.611771432346217 -32.813473260566404 7.999999999999981
    vertex 3.999999999999999 -32.762362 7.999999999999981
  endloop
endfacet
facet normal -1.7469666877633316e-31 -5.213857359722107e-16 1.0
  outer loop
    vertex 7.100000000000001 -16.000000000000004 7.999999999999991
    vertex 3.999999999999999 -32.762362 7.999999999999981
    vertex 4.388228567653781 -32.813473260566404 7.999999999999981
  endloop
endfacet
facet normal -1.7469666877633316e-31 -5.213857359722107e-16 1.0
  outer loop
    vertex 7.100000000000001 -16.000000000000004 7.999999999999991
    vertex 4.388228567653781 -32.813473260566404 7.999999999999981
    vertex 4.749999999999999 -32.963323894323345 7.999999999999981
  endloop
endfacet
facet normal -1.7469666877633316e-31 -5.213857359722107e-16 1.0
  outer loop
    vertex 7.100000000000001 -16.000000000000004 7.999999999999991
    vertex 4.749999999999999 -32.963323894323345 7.999999999999981
    vertex 5.06066017177982 -33.20170182822019 7.999999999999981
  endloop
endfacet
facet normal -1.7469666877633316e-31 -5.213857359722107e-16 1.0
  outer loop
    vertex 7.100000000000001 -16.000000000000004 7.999999999999991
    vertex 5.06066017177982 -33.20170182822019 7.999999999999981
    vertex 5.299038105676657 -33.512362 7.999999999999981
  endloop
endfacet
facet normal -1.7469666877633316e-31 -5.213857359722107e-16 1.0
  outer loop
    vertex 7.100000000000001 -16.000000000000004 7.999999999999991
    vertex 5.299038105676657 -33.512362 7.999999999999981
    vertex 5.448888739433601 -33.87413343234623 7.999999999999981
  endloop
endfacet
facet normal -1.7469666877633316e-31 -5.213857359722107e-16 1.0
  outer loop
    vertex 7.100000000000001 -16.000000000000004 7.999999999999991
    vertex 5.448888739433601 -33.87413343234623 7.999999999999981
    vertex 5.499999999999998 -34.262362 7.999999999999981
  endloop
endfacet
facet normal -1.7469666877633316e-31 -5.213857359722107e-16 1.0
  outer loop
    vertex 7.100000000000001 -16.000000000000004 7.999999999999991
    vertex 5.499999999999998 -34.262362 7.999999999999981
    vertex 6.156532362443119 -35.899250490842896 7.999999999999981
  endloop
endfacet
facet normal -1.7469666877633316e-31 -5.213857359722107e-16 1.0
  outer loop
    vertex 7.100000000000001 -16.000000000000004 7.999999999999991
    vertex 6.156532362443119 -35.899250490842896 7.999999999999981
    vertex 7.019649287424613 -35.163764416964774 7.999999999999981
  endloop
endfacet
facet normal -1.7469666877633316e-31 -5.213857359722107e-16 1.0
  outer loop
    vertex 7.100000000000001 -16.000000000000004 7.999999999999991
    vertex 7.019649287424613 -35.163764416964774 7.999999999999981
    vertex 7.643729034936188 -34.21696187165552 7.999999999999981
  endloop
endfacet
facet normal -1.7469666877633316e-31 -5.213857359722107e-16 1.0
  outer loop
    vertex 7.100000000000001 -16.000000000000004 7.999999999999991
    vertex 7.643729034936188 -34.21696187165552 7.999999999999981
    vertex 7.100000000000001 -10.666666666666671 7.999999999999994
  endloop
endfacet
facet normal -1.7469666877633316e-31 -5.213857359722107e-16 1.0
  outer loop
    vertex 0.02063090742072375 -33.1337922899355 7.999999999999981
    vertex 0.0 -5.639932965095795e-15 7.999999999999999
    vertex 0.0 -32.0 7.999999999999981
  endloop
endfacet
facet normal -1.7469666877633316e-31 -5.213857359722107e-16 1.0
  outer loop
    vertex 0.0 -5.639932965095795e-15 7.999999999999999
    vertex 0.02063090742072375 -33.1337922899355 7.999999999999981
    vertex 0.8999999999999998 -10.666666666666671 7.999999999999994
  endloop
endfacet
facet normal -1.7469666877633316e-31 -5.213857359722107e-16 1.0
  outer loop
    vertex 0.0 -5.639932965095795e-15 7.999999999999999
    vertex 0.8999999999999998 -10.666666666666671 7.999999999999994
    vertex 7.999999999999999 -5.639932965095795e-15 7.999999999999999
  endloop
endfacet
facet normal -1.7469666877633316e-31 -5.213857359722107e-16 1.0
  outer loop
    vertex 0.8999999999999998 -10.666666666666671 7.999999999999994
    vertex 0.02063090742072375 -33.1337922899355 7.999999999999981
    vertex 0.35627096506380995 -34.21696187165551 7.999999999999981
  endloop
endfacet
facet normal -1.7469666877633316e-31 -5.213857359722107e-16 1.0
  outer loop
    vertex 0.8999999999999998 -10.666666666666671 7.999999999999994
    vertex 0.35627096506380995 -34.21696187165551 7.999999999999981
    vertex 0.8999999999999998 -16.000000000000004 7.999999999999991
  endloop
endfacet
facet normal -1.7469666877633316e-31 -5.213857359722107e-16 1.0
  outer loop
    vertex 7.999999999999999 -5.639932965095795e-15 7.999999999999999
    vertex 0.8999999999999998 -10.666666666666671 7.999999999999994
    vertex 7.100000000000001 -10.666666666666671 7.999999999999994
  endloop
endfacet
facet normal -1.7469666877633316e-31 -5.213857359722107e-16 1.0
  outer loop
    vertex 7.999999999999999 -5.639932965095795e-15 7.999999999999999
    vertex 7.100000000000001 -10.666666666666671 7.999999999999994
    vertex 7.643729034936188 -34.21696187165552 7.999999999999981
  endloop
endfacet
facet normal -1.7469666877633316e-31 -5.213857359722107e-16 1.0
  outer loop
    vertex 7.999999999999999 -5.639932965095795e-15 7.999999999999999
    vertex 7.643729034936188 -34.21696187165552 7.999999999999981
    vertex 7.979369092579276 -33.133792289935506 7.999999999999981
  endloop
endfacet
facet normal -1.7469666877633316e-31 -5.213857359722107e-16 1.0
  outer loop
    vertex 7.999999999999999 -5.639932965095795e-15 7.999999999999999
    vertex 7.979369092579276 -33.133792289935506 7.999999999999981
    vertex 7.999999999999999 -32.0 7.999999999999981
  endloop
endfacet
endsolid whistle
